<?xml version="1.0" encoding="UTF-8"?>
<svg width="1200pt" height="1200pt" version="1.1" viewBox="0 0 1200 1200" xmlns="http://www.w3.org/2000/svg">
 <path d="m492.96 531-66.84 40.32 51 478.8c2.5469 32.293-8.5078 64.188-30.492 87.977-21.988 23.793-52.914 37.32-85.309 37.32-32.395 0-63.32-13.527-85.309-37.32-21.988-23.789-33.039-55.684-30.492-87.977l51-478.8-66.84-40.32c-15.672-9.4062-28.543-22.836-37.277-38.895-8.7383-16.055-13.02-34.156-12.402-52.426l12-384c0.34375-8.582 4.0195-16.695 10.25-22.609 6.2305-5.918 14.52-9.1719 23.109-9.0703 8.5469-0.003906 16.766 3.3047 22.922 9.2383 6.1562 5.9297 9.7695 14.02 10.078 22.562l8.6406 250.44v-0.003907c0.089844 6.6211 2.5703 12.984 6.9805 17.926 4.4062 4.9375 10.453 8.1172 17.02 8.957 7.3008 0.80469 14.609-1.4688 20.164-6.2734 5.5547-4.8047 8.8594-11.707 9.1172-19.047l8.6406-250.68c0-11.789 6.2891-22.684 16.5-28.578 10.207-5.8984 22.789-5.8984 33 0 10.207 5.8945 16.5 16.789 16.5 28.578l8.6406 250.68h-0.003906c0.27344 7.1797 3.4609 13.938 8.8281 18.719 5.3672 4.7773 12.449 7.1602 19.613 6.6016 6.5664-0.83984 12.613-4.0195 17.02-8.957 4.4102-4.9414 6.8906-11.305 6.9805-17.926l8.3984-250.44c0.3125-8.5234 3.9102-16.594 10.039-22.523 6.1289-5.9258 14.316-9.2539 22.844-9.2773 8.5469-0.003906 16.766 3.3047 22.918 9.2383 6.1562 5.9297 9.7695 14.02 10.082 22.562l12 384c0.62891 18.215-3.6094 36.266-12.277 52.297-8.668 16.031-21.457 29.461-37.043 38.902zm527.04-214.8c0-161.4-81.84-292.2-182.64-292.2s-182.64 130.8-182.64 292.2c0 123.6 48 228 116.16 270.6l-49.32 463.32c-2.5469 32.293 8.5078 64.188 30.496 87.977 21.984 23.793 52.91 37.32 85.305 37.32s63.32-13.527 85.309-37.32c21.988-23.789 33.039-55.684 30.492-87.977l-49.32-463.32c68.16-42.602 116.16-147 116.16-270.6z" fill="#202020"/>
</svg>
